<svg xmlns="http://www.w3.org/2000/svg" viewBox="0 0 1800 1000"><defs><linearGradient id="a" x1="0" x2="0" y1="0" y2="1"><stop stop-color="#07152e"/><stop offset=".55" stop-color="#173965"/><stop offset="1" stop-color="#081327"/></linearGradient><linearGradient id="b" x1="0" x2="1"><stop stop-color="#174a8b"/><stop offset=".5" stop-color="#fff"/><stop offset="1" stop-color="#b91c2d"/></linearGradient><filter id="s"><feDropShadow dx="0" dy="20" stdDeviation="22" flood-opacity=".35"/></filter></defs><rect width="1800" height="1000" fill="url(#a)"/><g opacity=".9"><circle cx="420" cy="260" r="42" fill="#fff"/><circle cx="620" cy="235" r="58" fill="#fff"/><circle cx="900" cy="220" r="70" fill="#fff"/><circle cx="1180" cy="235" r="58" fill="#fff"/><circle cx="1380" cy="260" r="42" fill="#fff"/></g><g opacity=".22"><circle cx="420" cy="260" r="140" fill="#fff"/><circle cx="620" cy="235" r="170" fill="#fff"/><circle cx="900" cy="220" r="210" fill="#fff"/><circle cx="1180" cy="235" r="170" fill="#fff"/><circle cx="1380" cy="260" r="140" fill="#fff"/></g><path d="M140 685C470 570 1300 570 1660 685v130H140z" fill="#5c9b61" opacity=".9"/><path d="M250 700C560 620 1230 620 1550 700" fill="none" stroke="#dff0d9" stroke-width="7" opacity=".45"/><rect y="700" width="1800" height="300" fill="#101d38"/><rect y="700" width="1800" height="52" fill="#172b52"/><g filter="url(#s)"><rect x="475" y="725" width="850" height="240" rx="8" fill="#0c1831"/><rect x="735" y="720" width="330" height="210" rx="8" fill="#fffaf0"/><rect x="758" y="744" width="284" height="162" fill="none" stroke="#bd1f35" stroke-width="5" opacity=".65"/><line x1="800" y1="790" x2="1000" y2="790" stroke="#1d3557" stroke-width="8" opacity=".16"/><line x1="800" y1="825" x2="970" y2="825" stroke="#1d3557" stroke-width="8" opacity=".16"/><circle cx="985" cy="875" r="24" fill="none" stroke="#bd1f35" stroke-width="7"/><circle cx="935" cy="875" r="24" fill="none" stroke="#174a8b" stroke-width="7"/></g><g stroke="#050914" stroke-width="12" stroke-linecap="round"><path d="M650 725C635 560 590 450 505 330" fill="none"/><path d="M1150 725c15-165 60-275 145-395" fill="none"/></g><ellipse cx="500" cy="325" rx="42" ry="25" fill="#050914" transform="rotate(38 500 325)"/><ellipse cx="1300" cy="325" rx="42" ry="25" fill="#050914" transform="rotate(-38 1300 325)"/><path d="M210 720l350-65 18 76-350 65z" fill="url(#b)" filter="url(#s)"/><g transform="translate(1360 650)" filter="url(#s)"><circle cx="115" cy="115" r="110" fill="#f3eadb"/><path d="M115 20l48 36-19 58H86L67 56zM36 78l50 36-20 58-52-5L0 110zM194 78l-50 36 20 58 52-5 14-57zM66 172l20-58h58l20 58-49 36z" fill="#111"/></g><rect width="1800" height="1000" fill="#000" opacity=".16"/></svg>
